<svg xmlns="http://www.w3.org/2000/svg" xmlns:xlink="http://www.w3.org/1999/xlink" xmlns:lucid="lucid" width="571.93" height="511.95"><g transform="translate(-214.06798565921827 -116.9145555511359)" lucid:page-tab-id="0_0"><path d="M340 300c0 22.1-17.9 40-40 40s-40-17.9-40-40 17.9-40 40-40 40 17.9 40 40z" stroke="#5e5e5e" stroke-width="3" fill="#fff"/><use xlink:href="#a" transform="matrix(1,0,0,1,265,265) translate(22.067901234567902 39.65277777777778)"/><path d="M740 300c0 22.1-17.9 40-40 40s-40-17.9-40-40 17.9-40 40-40 40 17.9 40 40z" stroke="#5e5e5e" stroke-width="3" fill="#fff"/><use xlink:href="#b" transform="matrix(1,0,0,1,665,265) translate(22.067901234567902 39.65277777777778)"/><path d="M540 520c0 22.1-17.9 40-40 40s-40-17.9-40-40 17.9-40 40-40 40 17.9 40 40z" stroke="#5e5e5e" stroke-width="3" fill="#fff"/><use xlink:href="#c" transform="matrix(1,0,0,1,465,485) translate(22.067901234567902 39.65277777777778)"/><path d="M233.58 243.07l-3.25 4.95-1.95 4.13-1.15 3.7-.58 3.54-.07 3.5.43 3.7 1.08 4.07.07.2 3.85 8.82 4.34 6.76 4.3 4.8 1.64 1.33-1.26 1.55-1.76-1.43-4.5-5.05-4.53-7.04-3.95-9.03-.12-.36-1.12-4.27-.47-3.96.1-3.8.6-3.8 1.24-3.98 2.08-4.38 3.4-5.2 5.05-5.7h2.67zm52.62-10.33l5.4 4.7 3.84 4.56 2.6 4.32 1.7 4.13.95 4.02.22 2.95-2 .16-.2-2.8-.9-3.72-1.56-3.84-2.45-4.05-3.62-4.3-5.17-4.52-4.72-2.98V229z" stroke="#5e5e5e" stroke-width=".05" fill="#5e5e5e"/><path d="M301 258.56l-.98-.06-1.02.03-.08-.98 2-.15z" fill="#5e5e5e"/><path d="M301.03 258.6l-1-.08-1.05.04-.08-1.03 2.04-.16zm-2.08-1.02l.07.93 1-.03.96.06-.1-1.1z" stroke="#5e5e5e" stroke-width=".05" fill="#5e5e5e"/><path d="M255.5 298.8l-14.98-.9 3.4-8.62z" fill="#5e5e5e"/><path d="M258.5 300l-19.42-1.18 4.4-11.2zm-16.55-3l10.53.63-8.14-6.7z" stroke="#5e5e5e" stroke-width=".05" fill="#5e5e5e"/><use xlink:href="#d" transform="matrix(1,0,0,1,225.06798565921827,214.80760083671626) translate(0.004999999999999005 14.222222222222223)"/><use xlink:href="#e" transform="matrix(1,0,0,1,225.06798565921827,214.80760083671626) translate(32.54820987654321 14.222222222222223)"/><path d="M493.6 301H342.5v-2h151.1zm146.4 0H506.4v-2H640z" stroke="#5e5e5e" stroke-width=".05" fill="#5e5e5e"/><path d="M342.53 301h-1.1l.07-.98-.03-1.02h1.06z" fill="#5e5e5e"/><path d="M342.55 301.02h-1.14l.08-1-.04-1.04h1.1zm-1.06-2l.03 1-.06.96h1.03v-1.96z" stroke="#5e5e5e" stroke-width=".05" fill="#5e5e5e"/><path d="M655.26 300L641 304.64v-9.28z" fill="#5e5e5e"/><path d="M658.5 300l-18.5 6v-12zm-16.5 3.26l10.03-3.26-10.03-3.26z" stroke="#5e5e5e" stroke-width=".05" fill="#5e5e5e"/><use xlink:href="#f" transform="matrix(1,0,0,1,493.60493827160496,289.3333333333333) translate(0.004999999999999893 14.222222222222223)"/><path d="M523.45 138.23l15.18 1.28 14.54 1.84 13.72 2.32 12.78 2.7 11.8 3.04 10.84 3.26 9.86 3.44 8.96 3.54 8.12 3.6 7.34 3.65 6.65 3.64 6 3.64 5.46 3.62 4.95 3.6 4.48 3.54 4.07 3.5 3.7 3.5 3.38 3.43 3.08 3.42 2.8 3.38 2.56 3.36 2.33 3.36 2.12 3.34 1.93 3.34 1.75 3.35 1.58 3.36 1.42 3.36 1.27 3.4 1.12 3.45.97 3.5.84 3.54.7 3.6.54 3.7.4 3.78.24 3.88.06 2.97-2 .05-.06-2.94-.24-3.8-.4-3.7-.52-3.6-.67-3.52-.83-3.46-.95-3.4-1.1-3.37-1.23-3.33-1.4-3.3-1.54-3.28-1.7-3.27-1.9-3.27-2.08-3.28-2.28-3.28-2.5-3.3-2.76-3.33-3.02-3.36-3.3-3.38-3.66-3.42-4-3.46-4.42-3.5-4.87-3.54-5.38-3.57-5.95-3.6-6.58-3.6-7.27-3.6-8.04-3.6-8.88-3.5-9.78-3.4-10.75-3.24-11.73-3-12.7-2.7-13.65-2.3-14.45-1.84-15.1-1.27-12-.5v-2zm-34.8 1.5l-12 .5-15.1 1.27-14.46 1.82-13.64 2.3-12.7 2.7-11.74 3-10.74 3.26-9.8 3.4-8.86 3.5-8.04 3.6-7.27 3.6-6.56 3.6-5.94 3.6-5.38 3.57-4.87 3.54-4.4 3.5-4.02 3.45-3.65 3.42-3.3 3.38-3.03 3.35-2.75 3.33-2.5 3.3-2.3 3.28-2.07 3.28-1.88 3.27-1.7 3.28-1.56 3.28-1.4 3.3-1.23 3.34-1.1 3.36-.95 3.4-.8 3.47-.07.34-1.97-.36.08-.4.83-3.53.96-3.48 1.12-3.44 1.26-3.4 1.42-3.4 1.58-3.34 1.75-3.35 1.92-3.35 2.13-3.35 2.33-3.35 2.55-3.37 2.8-3.38 3.08-3.42 3.4-3.44 3.7-3.48 4.06-3.52 4.48-3.55 4.94-3.6 5.45-3.6 6-3.65 6.65-3.65 7.35-3.64 8.1-3.6 8.97-3.56 9.86-3.43 10.82-3.26 11.8-3.02 12.8-2.72 13.72-2.32 14.54-1.83 15.18-1.26 12.14-.5z" stroke="#5e5e5e" stroke-width=".05" fill="#5e5e5e"/><path d="M701 258.56l-.98-.06-1.02.03-.02-1.04 2-.05z" fill="#5e5e5e"/><path d="M701.03 258.6l-1-.08-1.05.04-.03-1.1 2.05-.04zm-2.03-1.1l.03 1 1-.03.95.06-.03-1.06z" stroke="#5e5e5e" stroke-width=".05" fill="#5e5e5e"/><path d="M306.38 241.55l-6.05 13.73-3.18-14.66z" fill="#5e5e5e"/><path d="M307.85 240.7L300 258.5l-4.1-19.02zm-7.2 11.36l4.26-9.65-6.48-.65z" stroke="#5e5e5e" stroke-width=".05" fill="#5e5e5e"/><use xlink:href="#g" transform="matrix(1,0,0,1,488.6642692578038,127.9145555511359) translate(0.005000000000000782 14.222222222222223)"/><path d="M671.43 331.43l-131.1 144.2" stroke="#5e5e5e" stroke-width="2" fill="none"/><path d="M671.72 330.37l1.15.95-.72.8-1.48-1.34.7-.77z" stroke="#5e5e5e" stroke-width=".05" fill="#5e5e5e"/><path d="M530.08 486.92l6.16-13.68 6.86 6.24z" stroke="#5e5e5e" stroke-width="2" fill="#5e5e5e"/><use xlink:href="#f" transform="matrix(1,0,0,1,583.0440805596787,389.36684215628003) translate(0.004999999999999893 14.222222222222223)"/><path d="M472.2 487.93l-1.48 1.35-73.87-81.26h2.7zM380.16 386.7h-2.7L339.56 345l1.5-1.35z" stroke="#5e5e5e" stroke-width=".05" fill="#5e5e5e"/><path d="M472.86 488.66l-1.46 1.37-.7-.77 1.48-1.35z" fill="#5e5e5e"/><path d="M472.9 488.66l-1.5 1.4-.73-.8 1.5-1.38zm-2.16.6l.67.74 1.42-1.35-.64-.7z" stroke="#5e5e5e" stroke-width=".05" fill="#5e5e5e"/><path d="M343.07 340.5l-6.86 6.22-6.15-13.67z" fill="#5e5e5e"/><path d="M344.76 340.3l-8.9 8.1-8-17.74zm-8.2 4.76l4.82-4.4-9.16-5.22z" stroke="#5e5e5e" stroke-width=".05" fill="#5e5e5e"/><use xlink:href="#h" transform="matrix(1,0,0,1,377.17345399698337,386.69079939668165) translate(0.005000000000000782 14.222222222222223)"/><path d="M537.28 568.9l-.18 2.83-.44 2.98-.76 3.17-1.1 3.3-1.48 3.4-1.86 3.44-2.22 3.38-2.53 3.2-2.75 2.92-2.88 2.57-2.93 2.18-2.9 1.8-2.8 1.4-2.72 1.1-2.6.77-.9.2v-2.05l.4-.1 2.44-.72 2.55-1.02 2.67-1.34 2.74-1.7 2.8-2.08 2.76-2.46 2.63-2.8 2.42-3.05 2.12-3.22 1.78-3.28 1.4-3.25 1.05-3.13.72-3 .4-2.8.18-2.65-.07-2.53 2-.05zm-66.2-17.8l-.93.96-1.35 1.67-1.15 1.7-.98 1.73-.8 1.8-.66 1.88-.5 1.98-.33 2.08-.17 2.23.03 2.4.26 2.55.5 2.76.84 2.95 1.18 3.12 1.57 3.28 1.96 3.32 2.35 3.28 2.67 3.1 2.86 2.82 2.96 2.44 2.94 2.03 2.87 1.62 2.74 1.25 2.6.92.9.23v2.06l-1.5-.4-2.75-.98-2.9-1.32-3.02-1.7-3.1-2.14-3.1-2.55-2.98-2.93-2.77-3.23-2.44-3.42-2.07-3.48-1.65-3.43-1.24-3.28-.88-3.13-.55-2.93-.26-2.74-.04-2.56.18-2.4.37-2.26.54-2.13.7-2.05.88-1.96 1.06-1.9 1.25-1.83 1.46-1.8 1-1.02z" stroke="#5e5e5e" stroke-width=".05" fill="#5e5e5e"/><path d="M471.72 550.37l-.65.75-1.44-1.4.75-.76z" fill="#5e5e5e"/><path d="M471.75 550.37l-.68.8-1.47-1.44.78-.8zm-2.08-.64l1.4 1.35.6-.7-1.3-1.38z" stroke="#5e5e5e" stroke-width=".05" fill="#5e5e5e"/><path d="M540.2 563.83l-8.5 3.74-1.5-14.92z" fill="#5e5e5e"/><path d="M541.86 564.2l-11 4.84-1.97-19.35zm-9.3 1.9l5.97-2.63-7.03-7.86z" stroke="#5e5e5e" stroke-width=".05" fill="#5e5e5e"/><use xlink:href="#f" transform="matrix(1,0,0,1,493.44475981433663,596.5294137714708) translate(0.004999999999999893 14.222222222222223)"/><path d="M537.22 499.74l131.7-148.95" stroke="#5e5e5e" stroke-width="2" fill="none"/><path d="M537.98 500.38l-.9 1.04-1.04-1.86.45-.5z" stroke="#5e5e5e" stroke-width=".05" fill="#5e5e5e"/><path d="M679.02 339.35l-5.98 13.76-6.94-6.13z" stroke="#5e5e5e" stroke-width="2" fill="#5e5e5e"/><use xlink:href="#g" transform="matrix(1,0,0,1,613.5831865026499,416.2132885894641) translate(0.005000000000000782 14.222222222222223)"/><path d="M771.56 247.88l.68 3.16.48 3.5.23 3.78-.06 4.02-.38 4.13-.7 4.12-1 3.96-1.22 3.72-1.4 3.4-1.56 3.03-1.64 2.7-1.7 2.34-1.7 2.04-1.75 1.77-.8.7-1.33-1.5.76-.66 1.63-1.67 1.63-1.92 1.6-2.2 1.56-2.57 1.47-2.9 1.36-3.25 1.18-3.58.96-3.82.67-3.97.37-3.97.05-3.86-.22-3.64-.46-3.34-.65-3.02-.8-2.68-.05-.13h2.1zm-27.1-22.47l3.2.43 2.92.6 1.75.53v2.1l-2.24-.68-2.77-.58-3.05-.4-3.32-.17-3.56.1-3.73.4-3.78.72-3.73 1-3.54 1.28-3.3 1.48-2.97 1.65-2.65 1.74-2.3 1.8-2.03 1.83-1.73 1.85-1.48 1.86-1.26 1.86-1.05 1.87-.87 1.88-.7 1.9-.56 1.92-.4 1.97-.24 2.04-.04 1.16-2-.08.05-1.24.25-2.2.43-2.12.6-2.08.75-2.05.94-2.02 1.13-2 1.35-2 1.58-1.97 1.84-1.97 2.13-1.94 2.44-1.9 2.78-1.82 3.12-1.72 3.44-1.54 3.7-1.33 3.87-1.05 3.93-.74 3.88-.42 3.72-.1z" stroke="#5e5e5e" stroke-width=".05" fill="#5e5e5e"/><path d="M701.04 257.5l-.04 1.06-.98-.06-1.02.03.04-1.1z" fill="#5e5e5e"/><path d="M701.07 257.5l-.05 1.1-1-.08-1.05.04.05-1.15zm-2.05 1l1-.03.95.06.04-1-1.93-.07z" stroke="#5e5e5e" stroke-width=".05" fill="#5e5e5e"/><path d="M759.5 298.04l-14.98.8 11.65-9.45z" fill="#5e5e5e"/><path d="M760.93 298.97L741.5 300l15.1-12.26zm-13.4-1.3l10.54-.56-2.34-6.07z" stroke="#5e5e5e" stroke-width=".05" fill="#5e5e5e"/><use xlink:href="#h" transform="matrix(1,0,0,1,752.3313197342601,224.23513507705073) translate(0.005000000000000782 14.222222222222223)"/><defs><path fill="#333" d="M209 0H11v-25l151-195H24v-28h176v25L50-27h159V0" id="i"/><path fill="#333" d="M101-251c68 0 85 55 85 127S166 4 100 4C33 4 14-52 14-124c0-73 17-127 87-127zm-1 229c47 0 54-49 54-102s-4-102-53-102c-51 0-55 48-55 102 0 53 5 102 54 102" id="j"/><g id="a"><use transform="matrix(0.06172839506172839,0,0,0.06172839506172839,0,0)" xlink:href="#i"/><use transform="matrix(0.06172839506172839,0,0,0.06172839506172839,13.518518518518517,0)" xlink:href="#j"/></g><path fill="#333" d="M27 0v-27h64v-190l-56 39v-29l58-41h29v221h61V0H27" id="k"/><g id="b"><use transform="matrix(0.06172839506172839,0,0,0.06172839506172839,0,0)" xlink:href="#i"/><use transform="matrix(0.06172839506172839,0,0,0.06172839506172839,13.518518518518517,0)" xlink:href="#k"/></g><path fill="#333" d="M101-251c82-7 93 87 43 132L82-64C71-53 59-42 53-27h129V0H18c2-99 128-94 128-182 0-28-16-43-45-43s-46 15-49 41l-32-3c6-41 34-60 81-64" id="l"/><g id="c"><use transform="matrix(0.06172839506172839,0,0,0.06172839506172839,0,0)" xlink:href="#i"/><use transform="matrix(0.06172839506172839,0,0,0.06172839506172839,13.518518518518517,0)" xlink:href="#l"/></g><path fill="#333" d="M182-130c37 4 62 22 62 59C244 23 116-4 24 0v-248c84 5 203-23 205 63 0 31-19 50-47 55zM76-148c40-3 101 13 101-30 0-44-60-28-101-31v61zm0 110c48-3 116 14 116-37 0-48-69-32-116-35v72" id="m"/><path fill="#333" d="M23 0v-37h61v-169l-59 37v-38l62-41h46v211h57V0H23" id="n"/><path fill="#333" d="M76-54c-1 42 2 86-19 110H24C36 42 46 24 48 0H25v-54h51" id="o"/><g id="d"><use transform="matrix(0.04938271604938272,0,0,0.04938271604938272,0,0)" xlink:href="#m"/><use transform="matrix(0.04938271604938272,0,0,0.04938271604938272,12.790123456790125,0)" xlink:href="#n"/><use transform="matrix(0.04938271604938272,0,0,0.04938271604938272,22.66666666666667,0)" xlink:href="#o"/></g><path fill="#333" d="M182-182c0 78-84 86-111 141h115V0H12c-6-101 99-100 120-180 1-22-12-31-33-32-23 0-32 14-35 34l-49-3c5-45 32-70 84-70 51 0 83 22 83 69" id="p"/><g id="e"><use transform="matrix(0.04938271604938272,0,0,0.04938271604938272,0,0)" xlink:href="#m"/><use transform="matrix(0.04938271604938272,0,0,0.04938271604938272,12.790123456790125,0)" xlink:href="#p"/></g><path fill="#333" d="M199 0l-22-63H83L61 0H9l90-248h61L250 0h-51zm-33-102l-36-108c-10 38-24 72-36 108h72" id="q"/><use transform="matrix(0.04938271604938272,0,0,0.04938271604938272,0,0)" xlink:href="#q" id="f"/><g id="g"><use transform="matrix(0.04938271604938272,0,0,0.04938271604938272,0,0)" xlink:href="#m"/><use transform="matrix(0.04938271604938272,0,0,0.04938271604938272,12.790123456790125,0)" xlink:href="#n"/></g><g id="h"><use transform="matrix(0.04938271604938272,0,0,0.04938271604938272,0,0)" xlink:href="#m"/><use transform="matrix(0.04938271604938272,0,0,0.04938271604938272,12.790123456790125,0)" xlink:href="#p"/></g></defs></g></svg>