<svg xmlns="http://www.w3.org/2000/svg" xmlns:xlink="http://www.w3.org/1999/xlink" xmlns:lucid="lucid" width="453.15" height="389.32"><g transform="translate(-584.6481856259411 -314.1109611834526)" lucid:page-tab-id="_SsdUyWTdWIW"><path d="M740 400c0 22.1-17.9 40-40 40s-40-17.9-40-40 17.9-40 40-40 40 17.9 40 40z" stroke="#5e5e5e" stroke-width="3" fill="#fff"/><use xlink:href="#a" transform="matrix(1,0,0,1,665,365) translate(22.067901234567902 39.65277777777778)"/><path d="M980 400c0 22.1-17.9 40-40 40s-40-17.9-40-40 17.9-40 40-40 40 17.9 40 40z" stroke="#5e5e5e" stroke-width="3" fill="#fff"/><use xlink:href="#b" transform="matrix(1,0,0,1,905,365) translate(22.067901234567902 39.65277777777778)"/><path d="M980 620c0 22.1-17.9 40-40 40s-40-17.9-40-40 17.9-40 40-40 40 17.9 40 40z" stroke="#5e5e5e" stroke-width="3" fill="#fff"/><use xlink:href="#c" transform="matrix(1,0,0,1,905,585) translate(22.067901234567902 39.65277777777778)"/><path d="M881.78 412.88H740.7v-2h141.08z" stroke="#008a0e" stroke-width=".05" fill="#008a0e"/><path d="M740.73 412.88h-1.35l.65-2h.7z" fill="#008a0e"/><path d="M740.75 412.9h-1.4l.66-2.05h.75zm-.7-2l-.63 1.95h1.28v-1.95z" stroke="#008a0e" stroke-width=".05" fill="#008a0e"/><path d="M897.05 411.88l-14.27 4.63v-9.26z" fill="#008a0e"/><path d="M900.28 411.88l-18.5 6v-12zm-16.5 3.26l10.03-3.26-10.02-3.26z" stroke="#008a0e" stroke-width=".05" fill="#008a0e"/><use xlink:href="#d" transform="matrix(1,0,0,1,813.5992416462512,415.8795426445909) translate(0.004999999999999893 14.222222222222223)"/><path d="M926.26 440.1v122.26" stroke="#008a0e" stroke-width="2" fill="none"/><path d="M927.26 439.43v.7h-2v-1.35z" stroke="#008a0e" stroke-width=".05" fill="#008a0e"/><path d="M926.26 577.63l-4.64-14.27h9.27z" stroke="#008a0e" stroke-width="2" fill="#008a0e"/><use xlink:href="#d" transform="matrix(1,0,0,1,905.4687377949639,499.31768436887654) translate(0.004999999999999893 14.222222222222223)"/><path d="M909.36 590.56l-1.35 1.47-112.64-103.26h1.18v-1.63zm-134.3-123.12h-1.2v1.63l-30.32-27.8 1.35-1.47z" stroke="#5e5e5e" stroke-width=".05" fill="#5e5e5e"/><path d="M910.12 591.25l-.5.47-.84 1.02-.8-.73 1.36-1.46z" fill="#5e5e5e"/><path d="M910.15 591.25l-.5.48-.86 1.05-.85-.77 1.4-1.5zm-2.13.76l.76.7.83-1 .48-.45-.74-.68z" stroke="#5e5e5e" stroke-width=".05" fill="#5e5e5e"/><path d="M746.6 436.44l-6.25 6.84-7.38-13.06z" fill="#5e5e5e"/><path d="M748.28 436.1l-8.12 8.87-9.58-16.94zm-7.74 5.48l4.4-4.8-9.6-4.37z" stroke="#5e5e5e" stroke-width=".05" fill="#5e5e5e"/><use xlink:href="#e" transform="matrix(1,0,0,1,773.8711949685533,467.4374842767294) translate(0.005000000000000782 14.222222222222223)"/><path d="M957.17 581.3V456.24" stroke="#5e5e5e" stroke-width="2" fill="none"/><path d="M958.17 582.76l-2-.94v-.55h2z" stroke="#5e5e5e" stroke-width=".05" fill="#5e5e5e"/><path d="M957.17 441l4.64 14.25h-9.26z" stroke="#5e5e5e" stroke-width="2" fill="#5e5e5e"/><use xlink:href="#f" transform="matrix(1,0,0,1,965.1704141057619,499.35440758516756) translate(0.005000000000000782 14.222222222222223)"/><path d="M1006.33 347.2l1.03 3.5.84 3.83.57 4.13.26 4.3-.07 4.3-.38 4.16-.65 3.9-.9 3.57-1.04 3.18-1.2 2.82-1.25 2.48-1.32 2.16-1.36 1.9-1.4 1.64-.66.68-1.42-1.4.6-.62 1.3-1.54 1.28-1.77 1.24-2.03 1.2-2.34 1.1-2.68 1.02-3.05.85-3.4.63-3.76.37-4.02.06-4.15-.26-4.14-.55-3.98-.8-3.7-1-3.32-.38-1.03h2.14zm-34.74-19.66l-2.34.33-3.35.77-3.27 1.05-3.12 1.3-2.9 1.54-2.64 1.7-2.37 1.84-2.1 1.94-1.83 2-1.58 2.08-1.36 2.12-1.12 2.18-.92 2.24-.73 2.3-.53 2.4-.33 2.5-.06 1.7-2-.08.08-1.78.35-2.68.57-2.57.77-2.47 1-2.4 1.2-2.34 1.45-2.27 1.68-2.2 1.95-2.14 2.22-2.05 2.5-1.94 2.8-1.8 3.06-1.6 3.28-1.38 3.44-1.1 3.52-.82 2.7-.38zm7.53-2.2l1.22.15h-8.54l.62-.1 3.43-.17z" stroke="#5e5e5e" stroke-width=".05" fill="#5e5e5e"/><path d="M941.04 357.52l-.04 1.04-.98-.06-1.02.03.05-1.1z" fill="#5e5e5e"/><path d="M941.07 357.5l-.05 1.1-1-.08-1.05.04.05-1.16zm-2.05 1l1-.03.95.06.05-1-1.95-.07z" stroke="#5e5e5e" stroke-width=".05" fill="#5e5e5e"/><path d="M999.44 397.52l-14.95 1.23 11.36-9.78z" fill="#5e5e5e"/><path d="M1000.9 398.4l-19.4 1.6 14.75-12.7zm-13.43-.9l10.5-.86-2.5-6z" stroke="#5e5e5e" stroke-width=".05" fill="#5e5e5e"/><use xlink:href="#g" transform="matrix(1,0,0,1,971.586576442141,325.493222883902) translate(0.004999999999999005 14.222222222222223)"/><use xlink:href="#h" transform="matrix(1,0,0,1,971.586576442141,325.493222883902) translate(32.54820987654321 14.222222222222223)"/><path d="M740 620c0 22.1-17.9 40-40 40s-40-17.9-40-40 17.9-40 40-40 40 17.9 40 40z" stroke="#5e5e5e" stroke-width="3" fill="#fff"/><use xlink:href="#i" transform="matrix(1,0,0,1,665,585) translate(22.067901234567902 39.65277777777778)"/><path d="M843.93 488.34h1.18L731.96 592.07l-1.35-1.48 113.33-103.9zm52.57-47.1l-29.9 27.4V467h-1.18l29.73-27.24z" stroke="#5e5e5e" stroke-width=".05" fill="#5e5e5e"/><path d="M731.97 592.05l-.74.68-1.38-1.45.77-.7z" fill="#5e5e5e"/><path d="M732 592.05l-.78.72-1.4-1.5.8-.73zm-2.1-.77l1.33 1.42.7-.65-1.3-1.44z" stroke="#5e5e5e" stroke-width=".05" fill="#5e5e5e"/><path d="M899.7 443.24l-6.27-6.84 13.65-6.22z" fill="#5e5e5e"/><path d="M899.9 444.93l-8.14-8.87 17.7-8.07zm-4.8-8.2l4.4 4.82 5.2-9.18z" stroke="#5e5e5e" stroke-width=".05" fill="#5e5e5e"/><use xlink:href="#e" transform="matrix(1,0,0,1,843.9330817610062,467.0057861635221) translate(0.005000000000000782 14.222222222222223)"/><path d="M701 577.5h-2v-28.1h2zm0-49.44h-2V460h2z" stroke="#5e5e5e" stroke-width=".05" fill="#5e5e5e"/><path d="M701 578.56l-.98-.06-1.02.03v-1.06h2z" fill="#5e5e5e"/><path d="M701.02 578.6l-1-.08-1.04.04v-1.1H701zm-2-1.1v1l1-.03.96.06v-1.03z" stroke="#5e5e5e" stroke-width=".05" fill="#5e5e5e"/><path d="M704.64 459h-9.28l4.64-14.26z" fill="#5e5e5e"/><path d="M706 460h-12l6-18.5zm-9.26-2h6.52L700 447.97z" stroke="#5e5e5e" stroke-width=".05" fill="#5e5e5e"/><use xlink:href="#j" transform="matrix(1,0,0,1,688.6666666666666,528.0580430177926) translate(0.005000000000000782 14.222222222222223)"/><path d="M808.68 635.43h-68.8v-2h68.8zm73.96 0h-51.3v-2h51.3z" stroke="#5e5e5e" stroke-width=".05" fill="#5e5e5e"/><path d="M897.9 634.43l-14.26 4.63v-9.27z" fill="#5e5e5e"/><path d="M901.14 634.43l-18.5 6v-12zm-16.5 3.26l10.03-3.27-10.03-3.26z" stroke="#5e5e5e" stroke-width=".05" fill="#5e5e5e"/><path d="M739.9 635.43h-1.38l.1-.23.58-1.77h.7z" fill="#5e5e5e"/><path d="M739.93 635.45h-1.45l.13-.26.6-1.8h.73zm-.7-2l-.57 1.76-.1.2h1.32v-1.95z" stroke="#5e5e5e" stroke-width=".05" fill="#5e5e5e"/><use xlink:href="#f" transform="matrix(1,0,0,1,808.6785945034327,623.7625724543788) translate(0.005000000000000782 14.222222222222223)"/><path d="M634.35 347.17l-.93 3.13-.76 3.5-.52 3.8-.25 4 .06 4.1.36 4.04.65 3.85.88 3.55 1.06 3.2 1.2 2.85 1.27 2.5 1.33 2.17 1.36 1.88 1.38 1.64 1.1 1.1-1.44 1.4-1.14-1.16-1.48-1.75-1.45-2.03-1.4-2.3-1.34-2.63-1.26-3-1.1-3.34-.93-3.7-.66-4-.38-4.2-.07-4.25.25-4.16.54-3.96.78-3.63.97-3.27.04-.1h2.13zm50.93-15.48l2.7 1.84 2.43 1.96 2.12 2.05 1.84 2.1 1.6 2.16 1.33 2.2 1.1 2.25.93 2.3.72 2.35.52 2.43.32 2.52.06 1.6-2 .1-.06-1.53-.3-2.36-.5-2.26-.66-2.2-.85-2.13-1.06-2.1-1.26-2.04-1.48-2.02-1.73-1.97-2-1.93-2.27-1.85-2.58-1.76-.82-.48v-2.3z" stroke="#5e5e5e" stroke-width=".05" fill="#5e5e5e"/><path d="M701 358.56l-.98-.06-1.02.03-.04-1 2-.1z" fill="#5e5e5e"/><path d="M701.03 358.6l-1-.08-1.05.04-.05-1.07 2.05-.1zm-2.05-1.06l.04.97 1-.03.96.06-.05-1.07z" stroke="#5e5e5e" stroke-width=".05" fill="#5e5e5e"/><path d="M655.5 398.78l-14.96-1.1 3.5-8.58z" fill="#5e5e5e"/><path d="M658.5 400l-19.4-1.42 4.54-11.13zm-16.5-3.2l10.5.76-8.05-6.8z" stroke="#5e5e5e" stroke-width=".05" fill="#5e5e5e"/><use xlink:href="#k" transform="matrix(1,0,0,1,595.6481856259411,325.1109611834526) translate(0.005000000000002558 14.222222222222223)"/><use xlink:href="#l" transform="matrix(1,0,0,1,595.6481856259411,325.1109611834526) translate(32.54820987654322 14.222222222222223)"/><use xlink:href="#m" transform="matrix(1,0,0,1,595.6481856259411,325.1109611834526) translate(65.09141975308643 14.222222222222223)"/><path d="M813.6 606.44h-56.3v-2h56.3zm86.56 0h-73.78v-2h73.78z" stroke="#008a0e" stroke-width=".05" fill="#008a0e"/><path d="M756.3 610.07l-14.26-4.63 14.26-4.64z" fill="#008a0e"/><path d="M757.3 611.45l-18.5-6 18.5-6.02zm-12.03-6l10.03 3.25v-6.52z" stroke="#008a0e" stroke-width=".05" fill="#008a0e"/><path d="M901.37 604.8l-.53 1.64h-.7v-2h1.4z" fill="#008a0e"/><path d="M901.4 604.8l-.54 1.66h-.75v-2.05h1.48zm-1.24-.34v1.95h.66l.52-1.6.16-.34z" stroke="#008a0e" stroke-width=".05" fill="#008a0e"/><use xlink:href="#d" transform="matrix(1,0,0,1,813.5876750431861,594.7709647403206) translate(0.004999999999999893 14.222222222222223)"/><path d="M694.47 679.12l-.78.86-1.7 1.6-1.9 1.52-2.18 1.45-2.45 1.36-2.76 1.24-3.05 1.08-3.35.88-3.6.63-3.8.34-3.86.02-3.83-.3-3.68-.6-3.46-.86-3.18-1.08-2.9-1.25-1.4-.75v-2.27l2.3 1.23 2.72 1.2 3.02 1.02 3.3.82 3.52.57 3.67.3 3.7-.03 3.63-.33 3.44-.6 3.2-.83 2.9-1.02 2.6-1.16 2.3-1.28 2.04-1.36 1.8-1.42 1.56-1.47.72-.82zm-36.93-58.08l-1.48.06-2.24.3-2.1.43-1.95.6-1.86.74-1.77.9-1.7 1.04-1.65 1.22-1.6 1.4-1.53 1.6-1.5 1.8-1.4 2.07-1.32 2.33-1.2 2.63-1.06 2.92-.85 3.18-.6 3.4-.34 3.57-.03 3.62.27 3.56.56 3.42.8 3.2 1 2.93.33.75h-.5v3.6l-.46-.8-1.23-2.83-1.05-3.1-.84-3.35-.56-3.58-.3-3.73.04-3.77.35-3.73.64-3.57.9-3.35 1.1-3.08 1.28-2.78 1.4-2.48 1.5-2.2 1.6-1.96 1.66-1.72 1.73-1.5 1.78-1.3 1.86-1.15 1.93-.95 2-.8 2.13-.65 2.25-.5 2.42-.3 1.56-.06z" stroke="#008a0e" stroke-width=".05" fill="#008a0e"/><path d="M658.5 619.98l.03 1.02-1 .04-.1-2 1.13-.04z" fill="#008a0e"/><path d="M658.52 619.98l.04 1.04-1.07.05-.1-2.05 1.2-.05zm-1.06-.9l.08 1.94.97-.04-.03-1 .06-.96z" stroke="#008a0e" stroke-width=".05" fill="#008a0e"/><path d="M698.27 679.52l-8.7-3.22 9.3-11.76z" fill="#008a0e"/><path d="M699.2 680.94l-11.26-4.18L700 661.5zm-8-5.1l6.12 2.27.43-10.53z" stroke="#008a0e" stroke-width=".05" fill="#008a0e"/><use xlink:href="#d" transform="matrix(1,0,0,1,633.7859545594463,668.6997736942337) translate(0.004999999999999893 14.222222222222223)"/><path d="M808.7 387.4h-51v-2h51zm91.15 0h-68.5v-2h68.5z" stroke="#5e5e5e" stroke-width=".05" fill="#5e5e5e"/><path d="M900.53 387.4h-.7v-2h1.35z" fill="#5e5e5e"/><path d="M900.55 387.42h-.75v-2.05h1.4zm-.7-2v1.95h.66l.64-1.95z" stroke="#5e5e5e" stroke-width=".05" fill="#5e5e5e"/><path d="M756.7 391.03l-14.28-4.64 14.27-4.64z" fill="#5e5e5e"/><path d="M757.7 392.4l-18.5-6 18.5-6.02zm-12.04-6l10.03 3.25v-6.52z" stroke="#5e5e5e" stroke-width=".05" fill="#5e5e5e"/><use xlink:href="#f" transform="matrix(1,0,0,1,808.6876899749842,375.72629599823915) translate(0.005000000000000782 14.222222222222223)"/><path d="M947.75 678.57l1.62 1.6 1.86 1.55 2.14 1.52 2.44 1.45 2.76 1.34 3.08 1.2 3.37 1.04 3.6.8 3.77.5 3.78.22 3.7-.1 3.52-.36 3.27-.6 2.96-.8 1.3-.47v2.13l-.7.24-3.12.85-3.42.62-3.68.4-3.86.08-3.95-.22-3.9-.54-3.77-.82-3.52-1.08-3.23-1.27-2.9-1.42-2.57-1.53-2.27-1.6-1.98-1.67-1.73-1.7-.74-.84 1.52-1.3zm36.15-59.47l2.26.27 2.15.44 2.08.62 2 .76 1.94.93 1.9 1.12 1.86 1.3 1.82 1.5 1.78 1.73 1.74 2 1.68 2.26 1.6 2.6 1.48 2.88 1.33 3.2 1.14 3.5.87 3.7.6 3.84.26 3.87-.04 3.77-.34 3.6-.58 3.35-.8 3.07-.6 1.7h-2.12l.8-2.3.76-2.9.56-3.2.32-3.44.04-3.6-.25-3.72-.55-3.68-.84-3.55-1.06-3.33-1.27-3.05-1.4-2.75-1.52-2.43-1.6-2.14-1.62-1.87-1.67-1.62-1.7-1.4-1.72-1.2-1.75-1.02-1.8-.86-1.86-.7-1.9-.56-2-.4-2.1-.27-1.28-.06.08-2z" stroke="#5e5e5e" stroke-width=".05" fill="#5e5e5e"/><path d="M982.57 619.04l-.08 2-1.06-.04.06-.98-.03-1.02z" fill="#5e5e5e"/><path d="M982.6 619.02l-.1 2.05-1.1-.05.08-1-.04-1.05zm-1.07 1l-.06.95 1 .04.07-1.93-1.05-.05z" stroke="#5e5e5e" stroke-width=".05" fill="#5e5e5e"/><path d="M950.46 676.28l-8.7 3.24-.63-15z" fill="#5e5e5e"/><path d="M952.1 676.74l-11.27 4.2-.83-19.44zm-9.4 1.36l6.12-2.28-6.56-8.25z" stroke="#5e5e5e" stroke-width=".05" fill="#5e5e5e"/><g><use xlink:href="#j" transform="matrix(1,0,0,1,990.8925166284329,671.0939877636594) translate(0.005000000000000782 14.222222222222223)"/></g><defs><path fill="#333" d="M209 0H11v-25l151-195H24v-28h176v25L50-27h159V0" id="n"/><path fill="#333" d="M101-251c68 0 85 55 85 127S166 4 100 4C33 4 14-52 14-124c0-73 17-127 87-127zm-1 229c47 0 54-49 54-102s-4-102-53-102c-51 0-55 48-55 102 0 53 5 102 54 102" id="o"/><g id="a"><use transform="matrix(0.06172839506172839,0,0,0.06172839506172839,0,0)" xlink:href="#n"/><use transform="matrix(0.06172839506172839,0,0,0.06172839506172839,13.518518518518517,0)" xlink:href="#o"/></g><path fill="#333" d="M27 0v-27h64v-190l-56 39v-29l58-41h29v221h61V0H27" id="p"/><g id="b"><use transform="matrix(0.06172839506172839,0,0,0.06172839506172839,0,0)" xlink:href="#n"/><use transform="matrix(0.06172839506172839,0,0,0.06172839506172839,13.518518518518517,0)" xlink:href="#p"/></g><path fill="#333" d="M101-251c82-7 93 87 43 132L82-64C71-53 59-42 53-27h129V0H18c2-99 128-94 128-182 0-28-16-43-45-43s-46 15-49 41l-32-3c6-41 34-60 81-64" id="q"/><g id="c"><use transform="matrix(0.06172839506172839,0,0,0.06172839506172839,0,0)" xlink:href="#n"/><use transform="matrix(0.06172839506172839,0,0,0.06172839506172839,13.518518518518517,0)" xlink:href="#q"/></g><path fill="#333" d="M199 0l-22-63H83L61 0H9l90-248h61L250 0h-51zm-33-102l-36-108c-10 38-24 72-36 108h72" id="r"/><use transform="matrix(0.04938271604938272,0,0,0.04938271604938272,0,0)" xlink:href="#r" id="d"/><path fill="#333" d="M182-130c37 4 62 22 62 59C244 23 116-4 24 0v-248c84 5 203-23 205 63 0 31-19 50-47 55zM76-148c40-3 101 13 101-30 0-44-60-28-101-31v61zm0 110c48-3 116 14 116-37 0-48-69-32-116-35v72" id="s"/><path fill="#333" d="M182-182c0 78-84 86-111 141h115V0H12c-6-101 99-100 120-180 1-22-12-31-33-32-23 0-32 14-35 34l-49-3c5-45 32-70 84-70 51 0 83 22 83 69" id="t"/><g id="e"><use transform="matrix(0.04938271604938272,0,0,0.04938271604938272,0,0)" xlink:href="#s"/><use transform="matrix(0.04938271604938272,0,0,0.04938271604938272,12.790123456790125,0)" xlink:href="#t"/></g><path fill="#333" d="M23 0v-37h61v-169l-59 37v-38l62-41h46v211h57V0H23" id="u"/><g id="f"><use transform="matrix(0.04938271604938272,0,0,0.04938271604938272,0,0)" xlink:href="#s"/><use transform="matrix(0.04938271604938272,0,0,0.04938271604938272,12.790123456790125,0)" xlink:href="#u"/></g><path fill="#333" d="M76-54c-1 42 2 86-19 110H24C36 42 46 24 48 0H25v-54h51" id="v"/><g id="g"><use transform="matrix(0.04938271604938272,0,0,0.04938271604938272,0,0)" xlink:href="#s"/><use transform="matrix(0.04938271604938272,0,0,0.04938271604938272,12.790123456790125,0)" xlink:href="#t"/><use transform="matrix(0.04938271604938272,0,0,0.04938271604938272,22.66666666666667,0)" xlink:href="#v"/></g><path fill="#333" d="M128-127c34 4 56 21 59 58 7 91-148 94-172 28-4-9-6-17-7-26l51-5c1 24 16 35 40 36 23 0 39-12 38-36-1-31-31-36-65-34v-40c32 2 59-3 59-33 0-20-13-33-34-33s-33 13-35 32l-50-3c6-44 37-68 86-68 50 0 83 20 83 66 0 35-22 52-53 58" id="w"/><g id="h"><use transform="matrix(0.04938271604938272,0,0,0.04938271604938272,0,0)" xlink:href="#s"/><use transform="matrix(0.04938271604938272,0,0,0.04938271604938272,12.790123456790125,0)" xlink:href="#w"/></g><path fill="#333" d="M126-127c33 6 58 20 58 59 0 88-139 92-164 29-3-8-5-16-6-25l32-3c6 27 21 44 54 44 32 0 52-15 52-46 0-38-36-46-79-43v-28c39 1 72-4 72-42 0-27-17-43-46-43-28 0-47 15-49 41l-32-3c6-42 35-63 81-64 48-1 79 21 79 65 0 36-21 52-52 59" id="x"/><g id="i"><use transform="matrix(0.06172839506172839,0,0,0.06172839506172839,0,0)" xlink:href="#n"/><use transform="matrix(0.06172839506172839,0,0,0.06172839506172839,13.518518518518517,0)" xlink:href="#x"/></g><g id="j"><use transform="matrix(0.04938271604938272,0,0,0.04938271604938272,0,0)" xlink:href="#s"/><use transform="matrix(0.04938271604938272,0,0,0.04938271604938272,12.790123456790125,0)" xlink:href="#w"/></g><g id="k"><use transform="matrix(0.04938271604938272,0,0,0.04938271604938272,0,0)" xlink:href="#s"/><use transform="matrix(0.04938271604938272,0,0,0.04938271604938272,12.790123456790125,0)" xlink:href="#u"/><use transform="matrix(0.04938271604938272,0,0,0.04938271604938272,22.66666666666667,0)" xlink:href="#v"/></g><g id="l"><use transform="matrix(0.04938271604938272,0,0,0.04938271604938272,0,0)" xlink:href="#s"/><use transform="matrix(0.04938271604938272,0,0,0.04938271604938272,12.790123456790125,0)" xlink:href="#t"/><use transform="matrix(0.04938271604938272,0,0,0.04938271604938272,22.66666666666667,0)" xlink:href="#v"/></g><g id="m"><use transform="matrix(0.04938271604938272,0,0,0.04938271604938272,0,0)" xlink:href="#s"/><use transform="matrix(0.04938271604938272,0,0,0.04938271604938272,12.790123456790125,0)" xlink:href="#w"/></g></defs></g></svg>